<svg xmlns="http://www.w3.org/2000/svg" width="1200" height="720" viewBox="0 0 1200 720" role="img" aria-label="AI Resume Generator project card">
  <defs>
    <linearGradient id="bg2" x1="0" y1="0" x2="1" y2="1">
      <stop offset="0%" stop-color="#111827"/>
      <stop offset="100%" stop-color="#4c1d95"/>
    </linearGradient>
    <linearGradient id="chip" x1="0" y1="0" x2="1" y2="1">
      <stop offset="0%" stop-color="#22d3ee"/>
      <stop offset="100%" stop-color="#818cf8"/>
    </linearGradient>
  </defs>
  <rect width="1200" height="720" fill="url(#bg2)"/>
  <g opacity="0.18">
    <circle cx="1080" cy="80" r="150" fill="#a78bfa"/>
    <circle cx="150" cy="620" r="140" fill="#67e8f9"/>
  </g>
  <g transform="translate(130 120)">
    <rect x="0" y="0" width="390" height="470" rx="24" fill="#0b1220" stroke="#312e81" stroke-width="2"/>
    <rect x="34" y="36" width="220" height="22" rx="8" fill="#334155"/>
    <rect x="34" y="78" width="320" height="12" rx="6" fill="#475569"/>
    <rect x="34" y="104" width="300" height="12" rx="6" fill="#475569"/>
    <rect x="34" y="160" width="320" height="220" rx="18" fill="#111827"/>
    <rect x="34" y="404" width="130" height="36" rx="18" fill="url(#chip)"/>
    <text x="64" y="428" fill="#04111f" font-family="Arial, sans-serif" font-size="16" font-weight="700">Generate</text>
  </g>
  <g transform="translate(580 170)">
    <rect x="0" y="0" width="470" height="370" rx="24" fill="#0b1220" stroke="#1f2937" stroke-width="2"/>
    <rect x="30" y="30" width="120" height="44" rx="12" fill="url(#chip)"/>
    <text x="52" y="58" fill="#0b1220" font-family="Arial, sans-serif" font-size="18" font-weight="700">RAG</text>
    <rect x="170" y="30" width="120" height="44" rx="12" fill="url(#chip)"/>
    <text x="194" y="58" fill="#0b1220" font-family="Arial, sans-serif" font-size="18" font-weight="700">FAISS</text>
    <rect x="310" y="30" width="130" height="44" rx="12" fill="url(#chip)"/>
    <text x="336" y="58" fill="#0b1220" font-family="Arial, sans-serif" font-size="18" font-weight="700">GPT-4</text>
    <rect x="30" y="100" width="410" height="1" fill="#334155"/>
    <rect x="30" y="130" width="380" height="14" rx="7" fill="#475569"/>
    <rect x="30" y="158" width="350" height="14" rx="7" fill="#475569"/>
    <rect x="30" y="186" width="360" height="14" rx="7" fill="#475569"/>
    <rect x="30" y="230" width="410" height="110" rx="16" fill="#111827"/>
  </g>
  <text x="130" y="655" fill="#e9d5ff" font-family="Arial, sans-serif" font-size="54" font-weight="700">AI Resume Generator</text>
</svg>
