<?xml version="1.0" encoding="UTF-8"?>
<svg id="Layer_2" xmlns="http://www.w3.org/2000/svg" xmlns:xlink="http://www.w3.org/1999/xlink" version="1.1" viewBox="0 0 1106.2 144">
  <!-- Generator: Adobe Illustrator 29.0.1, SVG Export Plug-In . SVG Version: 2.1.0 Build 192)  -->
  <defs>
    <style>
      .st0 {
        fill: #929496;
      }

      .st1 {
        fill: url(#linear-gradient);
      }

      .st2 {
        fill: #0d0b5b;
      }
    </style>
    <linearGradient id="linear-gradient" x1="8.2" y1="-901.3" x2="118" y2="-819.5" gradientTransform="translate(0 -788) scale(1 -1)" gradientUnits="userSpaceOnUse">
      <stop offset="0" stop-color="#653385"/>
      <stop offset="1" stop-color="#d35292"/>
    </linearGradient>
  </defs>
  <g id="Layer_1-2">
    <g>
      <g>
        <path class="st0" d="M875.3,54.7l-1.7-3.1h-11.3l-1.7,3.1h-4.3l9.5-16.2h4.4l9.5,16.2h-4.4ZM871.9,48.5l-3.8-6.8v-.2h-.2v.2l-3.9,6.8h7.9Z"/>
        <path class="st0" d="M886.2,38.5h3.9v12.9h11.8v3.3h-15.7v-16.2Z"/>
        <path class="st0" d="M909.2,54.7v-16.2h16.6v3.3h-12.7v3.6h12.2v3.1h-12.2v6.2h-3.9,0Z"/>
        <path class="st0" d="M946.4,38.5c4,0,6,1.7,6,5v.3c0,1.9-1,3.2-2.9,3.8h0c1.2.4,2,1.1,2.3,2,0,.4.3,1.1.5,2.3s.5,2.1.7,2.7h-4.2l-.3-1.4c-.2-1.2-.4-2-.8-2.7-.5-.8-1.3-1.2-2.8-1.2h-7.8v5.2h-3.9v-16.2h13.2v.2ZM948.3,43.9c0-1.5-.9-2.2-2.9-2.2h-8.3v4.5h8.3c2.1,0,3-.6,3-2.1v-.2h0Z"/>
        <path class="st0" d="M960.2,38.5h16.9v3.2h-13v3.3h12.4v3h-12.4v3.4h13.2v3.2h-17.1v-16.2h0Z"/>
        <path class="st0" d="M998.2,38.5c4.3,0,7.8,3.1,7.8,7.7v.7c0,2.3-1,4.4-2.4,5.7s-3.2,2-5.1,2h-13.8v-16.2h13.5ZM1001.9,46.3c0-3-1.7-4.5-4.6-4.5h-8.6v9.7h8.6c2.9,0,4.6-1.5,4.6-4.5v-.6h0Z"/>
        <path class="st0" d="M882.3,66.2v16.2h-3.9v-12.8h0l-.2.4-6.5,10.1h-3.5l-6.5-10.1-.3-.4h0v12.8h-3.9v-16.2h6l6.2,9.5v.2h.2v-.2l6.3-9.5h6.1Z"/>
        <path class="st0" d="M907.9,82.4l-1.7-3.1h-11.3l-1.7,3.1h-4.3l9.5-16.2h4.4l9.5,16.2s-4.4,0-4.4,0ZM904.5,76.3l-3.8-6.8v-.2h-.2v.2l-3.9,6.8h7.9Z"/>
        <path class="st0" d="M935.1,66.2h3.9v16.2h-5l-11.1-11.6-.3-.3h0l.2.5v11.4h-3.9v-16.2h5l11.1,11.6.3.3h0l-.2-.6v-11.4h0Z"/>
        <path class="st0" d="M963.2,66.2h3.9v16.2h-5l-11.1-11.6-.3-.3h0l.2.5v11.4h-3.9v-16.2h5l11.1,11.6.3.3h0l-.2-.6v-11.4h0Z"/>
        <path class="st0" d="M857.5,110.1v-16.2h16.6v3.3h-12.7v3.6h12.2v3.1h-12.2v6.2h-3.9,0Z"/>
        <path class="st0" d="M895.5,93.8c2.1.3,4.2,1.1,5.5,2.3s2.2,3.3,2.2,5.9-.9,4.7-2.2,5.9-3.4,2-5.5,2.3c-1,.2-2.2.2-3.4.2s-2.4,0-3.4-.2c-2.1-.3-4.2-1.1-5.5-2.3-1.3-1.2-2.2-3.3-2.2-5.9,0-6.8,5.2-8.5,11.1-8.5s2.4,0,3.4.2h0ZM886.6,98c-1,.7-1.6,2.1-1.6,4s.5,3.3,1.6,4.1c1,.7,2.9,1.1,5.5,1.1s4.5-.4,5.5-1.1,1.6-2.1,1.6-4.1c0-4-1.9-5.2-7.1-5.2s-4.5.4-5.5,1.1h0Z"/>
        <path class="st0" d="M926,93.9h3.9v10.8c0,3.7-4.1,5.8-9.7,5.7-5.5,0-9.7-2-9.7-5.7v-10.8h3.9v9.6c0,1.3.4,2.2,1.3,2.8.9.6,2.4.8,4.5.8,4.3,0,5.8-1.1,5.8-3.6v-9.6Z"/>
        <path class="st0" d="M954.1,93.9h3.9v16.2h-5l-11.1-11.6-.3-.3h0l.2.5v11.4h-3.9v-16.2h5l11.1,11.6.3.3h0l-.2-.6v-11.4h0Z"/>
        <path class="st0" d="M979.2,93.9c4.3,0,7.8,3.1,7.8,7.7v.7c0,2.3-1,4.4-2.4,5.7-1.4,1.3-3.2,2-5.1,2h-13.8v-16.2h13.5ZM983,101.7c0-3-1.7-4.5-4.6-4.5h-8.6v9.7h8.6c2.9,0,4.6-1.6,4.6-4.5v-.6h0Z"/>
        <path class="st0" d="M1011.1,110.1l-1.7-3.1h-11.3l-1.7,3.1h-4.3l9.5-16.2h4.4l9.5,16.2s-4.4,0-4.4,0ZM1007.7,104l-3.8-6.8v-.2h-.2v.2l-3.9,6.8h7.9Z"/>
        <path class="st0" d="M1037.5,93.9v3.3h-7.8v12.9h-3.9v-12.9h-7.9v-3.3h19.6Z"/>
        <path class="st0" d="M1044.8,93.9h3.9v16.2h-3.9v-16.2Z"/>
        <path class="st0" d="M1070.8,93.8c2.1.3,4.2,1.1,5.5,2.3s2.2,3.3,2.2,5.9-.9,4.7-2.2,5.9-3.4,2-5.5,2.3c-1,.2-2.2.2-3.4.2s-2.4,0-3.4-.2c-2.1-.3-4.2-1.1-5.5-2.3-1.3-1.2-2.2-3.3-2.2-5.9,0-6.8,5.2-8.5,11.1-8.5s2.4,0,3.4.2h0ZM1061.9,98c-1,.7-1.6,2.1-1.6,4s.5,3.3,1.6,4.1c1,.7,2.9,1.1,5.5,1.1s4.5-.4,5.5-1.1,1.6-2.1,1.6-4.1c0-4-1.9-5.2-7.1-5.2s-4.5.4-5.5,1.1h0Z"/>
        <path class="st0" d="M1102.2,93.9h3.9v16.2h-5l-11.1-11.6-.3-.3h0l.2.5v11.4h-3.9v-16.2h5l11.1,11.6.3.3h0l-.2-.6v-11.4h0Z"/>
      </g>
      <path class="st2" d="M236.5,64.5c-2.3-2.3-5.3-4.2-9.1-5.5s-8.5-2-14.3-2-5.9.2-8.5.6-5.1,1-7.5,1.8v-13.7l-12.3-7.2h-4.1v72h16.5v-36.3c2.3-.8,4.6-1.3,7.1-1.7s5.1-.6,8-.6,6.2.4,8,1.1,3.2,1.7,4.1,2.8,1.4,2.5,1.5,4.1.2,3.2.2,4.8v25.7h16.5v-27.8c0-3.6-.4-6.9-1.3-10-.9-3.1-2.5-5.8-4.7-8.2h0Z"/>
      <path class="st2" d="M294,84.8c0,1.7,0,3.3-.2,4.8-.1,1.6-.6,2.9-1.4,4.1s-2.1,2.1-4,2.8c-1.8.7-4.4,1.1-7.8,1.1s-6-.4-7.8-1.1-3.1-1.7-4-2.8c-.8-1.2-1.3-2.5-1.4-4.1s-.2-3.2-.2-4.8v-25.7h-16.5v27.8c0,3.6.4,6.9,1.3,10,.9,3.1,2.4,5.8,4.5,8.2,2.2,2.3,5.1,4.2,8.7,5.5,3.7,1.3,8.3,2,13.8,2h2.9c5.5,0,10.1-.7,13.8-2,3.6-1.3,6.5-3.2,8.7-5.5s3.7-5.1,4.6-8.2,1.3-6.5,1.3-10v-27.8h-16.5v25.7h.2Z"/>
      <polygon class="st2" points="361.2 73.8 337.2 38.5 318.7 38.5 318.7 110.5 337.2 110.5 337.2 66.2 356.5 93.3 366 93.3 385.3 66.2 385.3 110.5 403.8 110.5 403.8 38.5 385.3 38.5 361.2 73.8"/>
      <path class="st2" d="M467,62.8c-2.5-1.9-5.7-3.3-9.6-4.3s-8.8-1.5-14.6-1.5-4.1,0-6.2.2c-2.2,0-4.4.3-6.6.5s-4.4.5-6.5.8-4,.7-5.8,1.1v15.4c1.8-.5,3.7-.9,5.8-1.3,2.1-.4,4.2-.7,6.4-1,2.2-.2,4.3-.4,6.4-.6,2.1,0,4.1-.2,6-.2,3.4,0,6,.2,8.1.6,2,.4,3.5.9,4.6,1.7s1.7,1.6,2,2.7.5,2.3.6,3.7c-4.7-1.3-10.5-1.9-17.2-1.9s-9.8.4-13.4,1.2-6.5,1.9-8.7,3.4c-2.2,1.4-3.8,3.1-4.7,5-.9,1.9-1.4,3.9-1.4,6.1v1c0,2.3.5,4.4,1.3,6.5.9,2.1,2.4,3.9,4.6,5.6,2.2,1.6,5.1,2.9,8.8,3.8,3.7.9,8.3,1.4,13.8,1.4s9-.4,12.8-1.3,7.4-2.2,10.9-4l5.5,3.2h4.1v-30.9c0-3.7-.5-7-1.6-9.8s-2.9-5.2-5.4-7h0ZM457.5,97.5c-4.7,1.4-9.7,2.2-15.1,2.2s-5.9,0-7.7-.3c-1.9-.2-3.2-.5-4.2-.9-.9-.4-1.5-.9-1.7-1.4s-.3-1.1-.3-1.7.1-1,.3-1.5c.2-.6.7-1.1,1.5-1.5s2.1-.8,3.8-1.1c1.7-.3,4.1-.4,7.2-.4s6.1.2,8.7.5,5.1.8,7.4,1.4v4.8h.1Z"/>
      <polygon class="st2" points="639 73.4 631.8 59 622.5 59 622.5 110.5 639 110.5 639 73.4"/>
      <path class="st2" d="M673.3,97.1c-2.3,0-4.2-.2-5.5-.5s-2.3-.8-2.9-1.4-1-1.4-1.1-2.3-.2-1.9-.2-3.1v-16.5h19.2l-7.2-14.4h-12v-13.4l-12.3-7.2h-4.1v53.5c0,3.2.5,6.1,1.4,8.6s2.4,4.6,4.4,6.3c2,1.7,4.6,3,7.8,3.9s7.2,1.3,11.8,1.3,3.8,0,5.5-.3c1.8-.2,3.4-.4,4.7-.8v-15c-1.4.4-2.9.7-4.6.9-1.7.2-3.4.3-4.9.3h0Z"/>
      <path class="st2" d="M630.3,55.2h.8c3.4,0,5.8-.8,7-2.3s1.8-3.3,1.8-5.5v-1.2c0-2.1-.6-3.9-1.8-5.5-1.2-1.5-3.6-2.3-7-2.3h-.8c-3.4,0-5.8.8-7,2.3s-1.8,3.3-1.8,5.5v1.2c0,2.1.6,3.9,1.8,5.5,1.2,1.5,3.6,2.3,7,2.3Z"/>
      <path class="st2" d="M544.1,82.2c0-20.4-12.6-25.3-31.2-25.3s-30.7,1.6-30.7,1.7v51.8h16.5v-36.7c6.6-.4,10-.7,14.3-.7,14.5,0,14.7,4.1,14.7,8.9v28.5h16.5v-28.1h0Z"/>
      <path class="st2" d="M614.3,82.2c0-20.4-12.6-25.3-31.2-25.3s-30.7,1.6-30.7,1.7v51.8h16.5v-36.7c6.6-.4,10-.7,14.3-.7,14.5,0,14.7,4.1,14.7,8.9v28.5h16.5v-28.1h0Z"/>
      <path class="st2" d="M733.9,59l-14.4,35.5-16.3-35.5h-15.4v4.1l24.6,49.2-3.9,8.9c-.5.9-1.1,1.7-1.8,2.3-.7.6-1.6,1.1-2.7,1.4-1.1.3-2.5.5-4.2.5h-1.9v14.9h3.9c8.3,0,15.9-4.9,19.3-12.6l28.4-64.5v-4.1h-15.6,0Z"/>
      <g>
        <path class="st2" d="M504,125v15.2h-2.8v-12.7h0l-.2.3-6.6,9.9h-2.5l-6.8-10.2h-.1v12.6h-2.8v-15.2h4.3l6.5,9.6v.2h.2v-.2l6.6-9.6h4.3-.1Z"/>
        <path class="st2" d="M523,125h15.3v2.3h-12.5v4.1h12v2.2h-12v4.3h12.7v2.3h-15.5v-15.2h0Z"/>
        <path class="st2" d="M569,125c3.9,0,7.4,2.6,7.4,7.3v.6c0,4.8-3.6,7.2-7.2,7.2h-11.9v-15.2h11.7ZM573.5,132.4c0-3.6-2.2-5-5.1-5h-8.3v10.5h8.3c3.1,0,5.1-1.6,5.1-4.9v-.5h0Z"/>
        <path class="st2" d="M611.6,125v2.4h-7.5v12.8h-2.8v-12.8h-7.5v-2.4s17.8,0,17.8,0Z"/>
        <path class="st2" d="M630,125h15.3v2.3h-12.5v4.1h12v2.2h-12v4.3h12.7v2.3h-15.5v-15.2h0Z"/>
        <path class="st2" d="M682.9,137.6c-2.5,1.9-5.6,2.8-9.5,2.8s-9.5-1.6-9.5-7.9.7-4.3,1.8-5.5c1.8-1.8,4.6-2.4,8.3-2.4s5.8.5,8.3,1.8l-.9,2.2c-2.1-1.1-4.6-1.7-7.8-1.7s-4.3.4-5.3,1.2c-1,.8-1.5,2.2-1.5,4.3s.5,3.5,1.5,4.3,2.6,1.2,4.9,1.2c3.3,0,6.1-.8,8.3-2.3l1.4,1.8h0v.2h0Z"/>
      </g>
      <path class="st1" d="M0,40.5c0-5,4.1-9.1,9.1-9.1s9.1,4.1,9.1,9.1-4.1,9.1-9.1,9.1S0,45.6,0,40.5ZM36.3,33.9c5,0,9.1-4.1,9.1-9.1s-4.1-9.1-9.1-9.1-9.1,4.1-9.1,9.1,4.1,9.1,9.1,9.1ZM90.8,33.9c5,0,9.1-4.1,9.1-9.1s-4.1-9.1-9.1-9.1-9.1,4.1-9.1,9.1,4.1,9.1,9.1,9.1ZM63.6,18.2c5,0,9.1-4.1,9.1-9.1S68.6,0,63.6,0s-9.1,4.1-9.1,9.1,4.1,9.1,9.1,9.1ZM118.1,49.6c5,0,9.1-4.1,9.1-9.1s-4.1-9.1-9.1-9.1-9.1,4.1-9.1,9.1,4.1,9.1,9.1,9.1ZM118.1,57.7c-5,0-9.1,4.1-9.1,9.1v15.7c0,2.5-2,4.5-4.5,4.5s-4.5-2-4.5-4.5v-31.5c0-5-4.1-9.1-9.1-9.1s-9.1,4.1-9.1,9.1h0c0,2.5-2,4.5-4.5,4.5s-4.5-2-4.5-4.5v-15.7c0-5-4.1-9.1-9.1-9.1s-9.1,4.1-9.1,9.1v62.9c0,2.5-2,4.5-4.5,4.5s-4.5-2-4.5-4.5v-47.2c0-5-4.1-9.1-9.1-9.1s-9.1,4.1-9.1,9.1v15.7c0,2.5-2,4.5-4.5,4.5s-4.5-2-4.5-4.5h0c0-5-4.1-9.1-9.1-9.1S0,61.7,0,66.8v36.7c0,5,4.1,9.1,9.1,9.1s9.1-4.1,9.1-9.1v-15.7c0-2.5,2-4.5,4.5-4.5s4.5,2,4.5,4.5v31.5c0,5,4.1,9.1,9.1,9.1s9.1-4.1,9.1-9.1h0c0-2.5,2-4.5,4.5-4.5s4.5,2,4.5,4.5v15.8c0,5,4.1,9.1,9.1,9.1s9.1-4.1,9.1-9.1v-62.9c0-2.5,2-4.5,4.5-4.5s4.5,2,4.5,4.5v47.2c0,5,4.1,9.1,9.1,9.1s9.1-4.1,9.1-9.1v-15.7c0-2.5,2-4.5,4.5-4.5s4.5,2,4.5,4.5h0c0,5,4.1,9.1,9.1,9.1s9.1-4.1,9.1-9.1v-36.7c0-5-4.1-9.1-9.1-9.1h0l.2-.2h0Z"/>
    </g>
  </g>
  <path class="st2" d="M767.3,55.9c-2.1,2.1-4.6,3.1-7.5,3.1s-5.5-1-7.5-3.1c-2.1-2.1-3.1-4.6-3.1-7.6s1-5.4,3.1-7.5,4.6-3.1,7.5-3.1,5.5,1,7.5,3.1c2.1,2.1,3.1,4.6,3.1,7.5s-1,5.5-3.1,7.6ZM753.2,41.8c-1.8,1.8-2.7,4-2.7,6.5s.9,4.7,2.7,6.5,3.9,2.7,6.5,2.7,4.7-.9,6.5-2.7,2.7-4,2.7-6.5-.9-4.7-2.7-6.5-4-2.7-6.5-2.7-4.7.9-6.5,2.7ZM759.5,42.4c1.5,0,2.5,0,3.2.4,1.2.5,1.8,1.5,1.8,3s-.4,1.8-1.1,2.3c-.4.3-1,.5-1.7.6.9,0,1.6.5,2,1.1s.6,1.2.6,1.8v2.4h-1.9v-1.5c0-1.3-.4-2.2-1.1-2.7-.4-.3-1.2-.4-2.3-.4h-1.6v4.6h-2.1v-11.7h4.2ZM761.7,44.3c-.5-.3-1.4-.4-2.5-.4h-1.8v4.2h1.9c.9,0,1.5,0,2-.3.8-.3,1.2-.9,1.2-1.8s-.3-1.4-.8-1.7h0Z"/>
  <path class="st2" d="M147.3,24.4c-2.1,2.1-4.6,3.1-7.5,3.1s-5.5-1-7.5-3.1c-2.1-2.1-3.1-4.6-3.1-7.6s1-5.4,3.1-7.5,4.6-3.1,7.5-3.1,5.5,1,7.5,3.1c2.1,2.1,3.1,4.6,3.1,7.5s-1,5.5-3.1,7.6ZM133.2,10.3c-1.8,1.8-2.7,4-2.7,6.5s.9,4.7,2.7,6.5,3.9,2.7,6.5,2.7,4.7-.9,6.5-2.7,2.7-4,2.7-6.5-.9-4.7-2.7-6.5-4-2.7-6.5-2.7-4.7.9-6.5,2.7ZM139.5,10.9c1.5,0,2.5,0,3.2.4,1.2.5,1.8,1.5,1.8,3s-.4,1.8-1.1,2.3c-.4.3-1,.5-1.7.6.9,0,1.6.5,2,1.1s.6,1.2.6,1.8v2.4h-1.9v-1.5c0-1.3-.4-2.2-1.1-2.7-.4-.3-1.2-.4-2.3-.4h-1.6v4.6h-2.1v-11.7h4.2ZM141.7,12.8c-.5-.3-1.4-.4-2.5-.4h-1.8v4.2h1.9c.9,0,1.5,0,2-.3.8-.3,1.2-.9,1.2-1.8s-.3-1.4-.8-1.7h0Z"/>
</svg>